<svg width="64" height="64" viewBox="0 0 64 64" fill="none" xmlns="http://www.w3.org/2000/svg">
<path d="M11.0296 55.7696C1.65698 46.397 1.65698 31.201 11.0296 21.8284L26.5859 6.27208C33.6153 -0.757359 45.0123 -0.75736 52.0417 6.27208C59.0712 13.3015 59.0712 24.6985 52.0418 31.7279L36.4854 47.2843C31.7991 51.9706 24.2011 51.9706 19.5148 47.2843C14.8285 42.598 14.8285 35 19.5148 30.3137L30.8285 19C32.3906 17.4379 34.9233 17.4379 36.4854 19C38.0475 20.5621 38.0475 23.0948 36.4854 24.6569L25.1717 35.9706C23.6096 37.5327 23.6096 40.0653 25.1717 41.6274C26.7338 43.1895 29.2665 43.1895 30.8285 41.6274L46.3849 26.0711C50.2901 22.1658 50.2901 15.8342 46.3849 11.9289C42.4797 8.02369 36.148 8.02369 32.2428 11.9289L16.6864 27.4853C10.438 33.7337 10.438 43.8643 16.6864 50.1127C22.9348 56.3611 33.0654 56.3611 39.3138 50.1127L50.6275 38.799C52.1896 37.2369 54.7223 37.2369 56.2844 38.799C57.8465 40.3611 57.8465 42.8937 56.2844 44.4558L44.9707 55.7696C35.5981 65.1421 20.4021 65.1421 11.0296 55.7696Z" fill="#0A9A8E"/>
</svg>
